# xmcd CD database file
#
# Track frame offsets:
#	150
#	15293
#	34643
#	59484
#	71709
#	85584
#	104640
#	124963
#	132352
#	145212
#	157392
#	171542
#	182089
#	193428
#	200019
#	206770
#	227532
#	245255
#	263031
#	279076
#	297145
#
# Disc length: 4191 seconds
#
# Revision: 0
# Processed by: cddbd v1.5.1PL2 Copyright (c) Steve Scherf et al.
# Submitted via: CDex 1.51
#
DISCID=43105d15
DTITLE=Mandolin Man Group - Mandolin Man Group
DYEAR=2006
DGENRE=Country
TTITLE0=Oasis (solo)
TTITLE1=Vivere D'Amor
TTITLE2=Oasis (hot safari club)
TTITLE3=Un SaracenoA Napoli
TTITLE4=Genova Country
TTITLE5=Bruttantella
TTITLE6=Sacred Mountain (Acon.)
TTITLE7=Greco (sample)
TTITLE8=Violetta
TTITLE9=The Train
TTITLE10=Disturbo
TTITLE11=Mandolin Blues
TTITLE12=Te lLo Dico Subito
TTITLE13=Guitar Swing (sample)
TTITLE14=Flying Machine (sample)
TTITLE15=I'M Not Alone
TTITLE16=Cantu Du Sentimento
TTITLE17=Senza L'Amor Non Si E'
TTITLE18=My Confusion
TTITLE19=Still Looking For Love
TTITLE20=Pray For Africa
EXTD=YEAR: 2006
EXTT0=
EXTT1=
EXTT2=
EXTT3=
EXTT4=
EXTT5=
EXTT6=
EXTT7=
EXTT8=
EXTT9=
EXTT10=
EXTT11=
EXTT12=
EXTT13=
EXTT14=
EXTT15=
EXTT16=
EXTT17=
EXTT18=
EXTT19=
EXTT20=
PLAYORDER=
